<?xml version="1.0" encoding="UTF-8"?>
<svg id="Layer_1" xmlns="http://www.w3.org/2000/svg" version="1.1" viewBox="0 0 595.28 841.89">
  <!-- Generator: Adobe Illustrator 30.1.0, SVG Export Plug-In . SVG Version: 2.1.1 Build 136)  -->
  <defs>
    <style>
      .st0, .st1 {
        fill: #f0eee9;
      }

      .st1, .st2 {
        fill-rule: evenodd;
      }

      .st2 {
        fill: #c5a059;
      }
    </style>
  </defs>
  <path class="st0" d="M96.47,421.39c1.7,26.32,19.81,34.82,43.87,34.82,18.68,0,42.46-7.22,42.46-29.72,0-17.27-14.01-24.2-28.59-27.6l-16.98-3.96c-8.35-1.98-14.44-4.25-14.44-9.06,0-5.38,8.21-7.36,16.56-7.36,9.62,0,18.26,3.82,18.26,11.46h24.06c0-9.77-4.53-17.41-11.6-22.5-7.78-5.8-18.68-8.63-29.44-8.63-9.62,0-19.25,2.26-26.61,6.23-8.63,4.81-15.14,12.45-15.14,22.93,0,7.5,2.97,13.45,9.77,18.97,4.95,3.96,12.45,6.37,20.24,8.07l15.71,3.54c8.07,1.84,14.01,4.53,14.01,9.34,0,5.1-8.35,8.63-17.13,8.63-9.91,0-20.38-4.39-20.95-15.14h-24.06Z"/>
  <path class="st0" d="M225.07,417.85c-4.72,18.56,9.48,33.86,15.87,36.93l43.46-.03c-8.71-1.78-36.73-18.97-45.51-35.9-5.8-11.18.08-17.57,4.95-23.85l28.36-34.75h-27.6l-26.18,34.25v-34.25h-24.77v94.54h24.77v-28.87l6.65-8.07Z"/>
  <polygon class="st1" points="376.79 360.11 399.72 360.11 399.72 431.86 433.26 431.86 433.26 454.79 399.72 454.79 376.79 454.79 376.79 431.86 376.79 360.11"/>
  <polygon class="st1" points="442.34 360.11 465.27 360.11 465.27 431.86 498.81 431.86 498.81 454.79 465.27 454.79 442.34 454.79 442.34 431.86 442.34 360.11"/>
  <path class="st0" d="M484.7,466.73h4.36v12.46h9.74v3.55h-14.1v-16ZM467.46,476.03h5.47l-2.74-6.45-2.74,6.45ZM467.44,466.73h6.01l6.89,16h-4.55l-1.51-3.55h-8.16l-1.51,3.55h-4.08l6.91-16ZM449.36,470.28h-6.35v-3.55h17.07v3.55h-6.35v12.46h-4.36v-12.46ZM433.86,466.73h4.36v16h-4.36v-16ZM409.83,474.75c0-1.55.21-2.86.64-3.93.42-1.07,1.04-1.94,1.83-2.59.8-.65,1.78-1.12,2.95-1.4,1.17-.29,2.49-.43,3.95-.43,2.66,0,4.77.42,6.34,1.26,1.57.84,2.5,2.29,2.79,4.35h-4.41c-.23-.88-.74-1.48-1.52-1.8-.78-.32-1.85-.48-3.21-.48-1.58,0-2.79.28-3.65.85-.86.56-1.29,1.64-1.29,3.21v1.9c0,1.58.43,2.64,1.28,3.19.85.55,2.06.82,3.64.82s2.85-.22,3.68-.65c.83-.43,1.3-1.15,1.43-2.16h-5.01v-2.9h9.25v1.76c0,1.3-.22,2.41-.66,3.33-.44.92-1.06,1.67-1.87,2.26-.8.59-1.79,1.02-2.95,1.29-1.16.27-2.44.41-3.85.41s-2.79-.14-3.95-.42c-1.17-.28-2.15-.73-2.95-1.37-.8-.63-1.41-1.49-1.83-2.56-.43-1.07-.64-2.39-.64-3.95ZM400.11,466.73h4.36v16h-4.36v-16ZM386.09,479.18c1.39,0,2.45-.27,3.17-.8.72-.53,1.08-1.52,1.08-2.96v-1.51c0-1.35-.36-2.29-1.08-2.83-.72-.54-1.77-.81-3.17-.81h-4.94v8.91h4.94ZM376.79,466.73h9.6c1.35,0,2.54.14,3.58.41,1.04.27,1.92.72,2.62,1.35.7.63,1.24,1.45,1.61,2.47.37,1.02.56,2.28.56,3.78s-.19,2.76-.56,3.78c-.37,1.02-.91,1.84-1.61,2.47-.7.63-1.58,1.07-2.62,1.34-1.04.27-2.24.41-3.58.41h-9.6v-16Z"/>
  <path class="st2" d="M272.17,411.17v-.1s.02.06.02.06l-.02.04ZM314.52,360.35c25.8-2.43,48.68,16.52,51.11,42.33,2.43,25.8-16.52,48.68-42.32,51.11-7.78.73-15.29-.48-22.05-3.24l47.97-39.44.47-23.21-24.63,5.57-4.21-3.68-32.42,6.09-14.27-2.96c5.52-17.42,21.01-30.73,40.35-32.55Z"/>
  <path class="st1" d="M326.89,400.79l-8.27-.72-.24,3.75,8.51-3.03ZM344.92,402.36l.18-8.85-21.28,4.81-4.28-3.75-31.15,5.85-18.81-3.91,7.77,14.83-11.93,18.71,50.49-28.85-.33,5.82,26.86-9.52-5.9,6.65,8.37-1.8ZM345.61,408.28l-56.63,46.56,4.59-14.29,31.83-22.77,20.21-9.5Z"/>
</svg>