<?xml version="1.0" encoding="UTF-8"?>
<svg id="Layer_1" xmlns="http://www.w3.org/2000/svg" version="1.1" viewBox="0 0 595.28 841.89">
  <!-- Generator: Adobe Illustrator 30.1.0, SVG Export Plug-In . SVG Version: 2.1.1 Build 136)  -->
  <defs>
    <style>
      .st0, .st1 {
        fill-rule: evenodd;
      }

      .st0, .st2 {
        fill: #0e162c;
      }

      .st1 {
        fill: #c5a059;
      }
    </style>
  </defs>
  <path class="st2" d="M69.47,421.45c1.93,29.86,22.47,39.49,49.76,39.49,21.19,0,48.16-8.19,48.16-33.71,0-19.58-15.89-27.45-32.43-31.3l-19.26-4.49c-9.47-2.25-16.37-4.82-16.37-10.27,0-6.1,9.31-8.35,18.78-8.35,10.92,0,20.71,4.33,20.71,13h27.29c0-11.08-5.14-19.74-13.16-25.52-8.83-6.58-21.19-9.79-33.39-9.79-10.92,0-21.83,2.57-30.18,7.06-9.79,5.46-17.18,14.13-17.18,26.01,0,8.51,3.37,15.25,11.08,21.51,5.62,4.49,14.13,7.22,22.95,9.15l17.82,4.01c9.15,2.09,15.89,5.14,15.89,10.59,0,5.78-9.47,9.79-19.42,9.79-11.24,0-23.11-4.98-23.76-17.18h-27.29Z"/>
  <path class="st2" d="M215.33,417.44c-5.35,21.05,10.75,38.4,18,41.89l49.3-.04c-9.88-2.02-41.66-21.52-51.62-40.72-6.57-12.68.09-19.93,5.61-27.05l32.17-39.41h-31.3l-29.7,38.85v-38.85h-28.09v107.23h28.09v-32.75l7.54-9.15Z"/>
  <polygon class="st0" points="387.41 351.94 413.42 351.94 413.42 433.33 451.46 433.33 451.46 459.33 413.42 459.33 387.41 459.33 387.41 433.33 387.41 351.94"/>
  <polygon class="st0" points="461.76 351.94 487.76 351.94 487.76 433.33 525.81 433.33 525.81 459.33 487.76 459.33 461.76 459.33 461.76 433.33 461.76 351.94"/>
  <path class="st2" d="M509.81,472.87h4.95v14.13h11.05v4.03h-15.99v-18.15ZM490.25,483.42h6.21l-3.1-7.31-3.1,7.31ZM490.23,472.87h6.81l7.81,18.15h-5.16l-1.71-4.03h-9.26l-1.71,4.03h-4.63l7.84-18.15ZM469.73,476.9h-7.21v-4.03h19.36v4.03h-7.21v14.13h-4.95v-14.13ZM452.15,472.87h4.95v18.15h-4.95v-18.15ZM424.89,481.97c0-1.75.24-3.24.72-4.46.48-1.22,1.17-2.2,2.08-2.93.9-.74,2.02-1.27,3.34-1.59,1.32-.32,2.82-.49,4.49-.49,3.02,0,5.42.48,7.2,1.43,1.78.96,2.84,2.6,3.17,4.93h-5c-.26-1-.84-1.68-1.72-2.04-.89-.36-2.1-.54-3.64-.54-1.79,0-3.17.32-4.14.96s-1.46,1.85-1.46,3.64v2.16c0,1.79.48,2.99,1.45,3.62.96.62,2.34.93,4.13.93s3.23-.25,4.17-.74c.94-.49,1.48-1.31,1.62-2.45h-5.68v-3.29h10.5v2c0,1.47-.25,2.73-.75,3.77-.5,1.04-1.21,1.9-2.12,2.57-.91.67-2.03,1.15-3.34,1.46-1.32.31-2.77.46-4.37.46s-3.16-.16-4.49-.47c-1.32-.32-2.44-.83-3.34-1.55-.9-.72-1.6-1.69-2.08-2.91-.48-1.22-.72-2.71-.72-4.49ZM413.86,472.87h4.95v18.15h-4.95v-18.15ZM397.96,487c1.58,0,2.77-.3,3.59-.91.82-.61,1.22-1.72,1.22-3.35v-1.71c0-1.53-.41-2.6-1.22-3.21-.82-.61-2.01-.92-3.59-.92h-5.6v10.1h5.6ZM387.41,472.87h10.89c1.53,0,2.88.15,4.06.46,1.18.31,2.17.82,2.97,1.53.8.71,1.41,1.64,1.83,2.8.42,1.16.63,2.59.63,4.29s-.21,3.13-.63,4.29c-.42,1.16-1.03,2.09-1.83,2.8-.8.71-1.79,1.22-2.97,1.53-1.18.31-2.54.46-4.06.46h-10.89v-18.15Z"/>
  <path class="st1" d="M268.75,409.85v-.11s.03.07.03.07l-.03.04ZM316.78,352.22c29.26-2.75,55.22,18.74,57.97,48.01,2.75,29.26-18.74,55.22-48.01,57.97-8.82.83-17.34-.55-25.01-3.67l54.41-44.74.53-26.33-27.94,6.31-4.77-4.18-36.77,6.91-16.19-3.36c6.26-19.76,23.83-34.86,45.77-36.92Z"/>
  <path class="st0" d="M330.81,398.08l-9.38-.82-.27,4.26,9.65-3.44ZM351.27,399.87l.2-10.03-24.13,5.45-4.86-4.25-35.33,6.64-21.33-4.43,8.82,16.82-13.53,21.22,57.26-32.72-.37,6.6,30.46-10.8-6.69,7.55,9.5-2.05ZM352.05,406.58l-64.23,52.81,5.21-16.21,36.11-25.83,22.92-10.77Z"/>
</svg>